<?xml version="1.0" standalone="no"?>
<!DOCTYPE svg PUBLIC "-//W3C//DTD SVG 20010904//EN"
 "http://www.w3.org/TR/2001/REC-SVG-20010904/DTD/svg10.dtd">
<svg version="1.0" xmlns="http://www.w3.org/2000/svg"
 width="180.000000pt" height="180.000000pt" viewBox="0 0 180.000000 180.000000"
 preserveAspectRatio="xMidYMid meet">

<g transform="translate(0.000000,180.000000) scale(0.100000,-0.100000)"
fill="#000000" stroke="none">
<path d="M0 900 l0 -900 900 0 900 0 0 900 0 900 -900 0 -900 0 0 -900z m749
265 l116 -114 -55 -56 -54 -55 -76 75 -75 75 -95 -95 -95 -95 75 -75 74 -75
-33 -67 -33 -68 334 333 c301 300 337 332 366 332 29 0 51 -19 195 -166 89
-91 166 -175 171 -188 5 -13 6 -34 3 -47 -3 -13 -80 -97 -170 -186 -143 -143
-167 -163 -196 -163 -40 0 -81 38 -81 76 0 22 28 55 130 159 71 72 130 135
130 141 0 5 -31 40 -69 78 l-70 69 35 69 c19 37 31 68 27 68 -5 0 -157 -148
-338 -330 -308 -308 -332 -330 -365 -330 -32 0 -50 14 -203 168 -176 176 -188
195 -159 247 6 11 82 91 170 178 204 201 184 198 341 42z"/>
</g>
</svg>
